<svg version="1.1" xmlns="http://www.w3.org/2000/svg" xmlns:xlink="http://www.w3.org/1999/xlink" x="0px" y="0px" viewBox="0 0 547.647 100.228" xml:space="preserve">
    <polygon fill="#FFFFFF" points="46.039,63.374 9.208,63.374 9.208,72.58 46.039,72.58 46.039,100.205 0,100.205 0,90.996 36.83,90.996 36.83,81.789 0,81.789 0,54.164 46.039,54.164"/>
    <polygon fill="#FFFFFF" points="89.997,54.164 136.037,54.164 136.037,63.373 117.62,63.373 117.62,100.203 108.413,100.203 108.413,63.373 89.997,63.373"/>
    <path fill="#FFFFFF" d="M196.33,81.789h-9.208v18.416h-9.208V54.164h46.039v27.625h-16.257l16.257,18.416h-11.366L196.33,81.789z M187.123,72.58h27.624v-9.206h-27.624V72.58z"/>
    <path fill="#FFFFFF" d="M269.995,54.164h46.038v46.041h-46.038V54.164z M306.827,63.374h-27.624v27.622h27.624V63.374z"/>
    <polygon fill="#FFFFFF" points="362.073,100.205 362.073,54.164 371.281,54.164 398.905,86.827 398.905,54.164 408.111,54.164 408.111,100.205 398.905,100.205 371.281,68.552 371.281,100.205"/>
    <polygon fill="#FFFFFF" points="471.346,100.205 471.346,90.996 480.265,90.996 471.346,67.977 458.829,100.205 448.325,100.205 466.741,54.164 475.951,54.164 494.364,100.205"/>
	<polygon fill="#FFFFFF" points="502.185,91.565 538.984,91.565 538.984,8.662 8.782,8.662 8.782,43.105 0.12,43.105 0.12,0 547.647,0 547.647,100.228 505.048,100.228"/>
</svg>
