<svg version="1.1" xmlns="http://www.w3.org/2000/svg" xmlns:xlink="http://www.w3.org/1999/xlink" x="0px" y="0px"
	 width="401.45px" height="37.387px" viewBox="0 0 401.45 37.387" enable-background="new 0 0 401.45 37.387" xml:space="preserve">
	<polygon fill="#706069" points="37.386,7.479 7.478,7.479 7.478,14.955 37.386,14.955 37.386,37.387 0,37.387 0,29.909 
		29.908,29.909 29.908,22.433 0,22.433 0,0 37.386,0 	"/>
	<polygon fill="#706069" points="73.082,0 110.469,0 110.469,7.478 95.514,7.478 95.514,37.386 88.037,37.386 88.037,7.478 
		73.082,7.478 	"/>
	<path fill="#706069" d="M159.43,22.433h-7.477v14.954h-7.477V0h37.386v22.433H168.66l13.202,14.954h-9.229L159.43,22.433z
		 M151.953,14.955h22.432V7.479h-22.432V14.955z"/>
	<path fill="#706069" d="M219.249,0h37.386v37.387h-37.386V0z M249.159,7.479h-22.432v22.431h22.432V7.479z"/>
	<polygon fill="#706069" points="294.021,37.387 294.021,0 301.5,0 323.932,26.522 323.932,0 331.408,0 331.408,37.387 
		323.932,37.387 301.5,11.684 301.5,37.387 	"/>
	<polygon fill="#706069" points="382.757,37.387 382.757,29.909 390,29.909 382.757,11.217 372.593,37.387 364.063,37.387 
		379.018,0 386.496,0 401.45,37.387 	"/>
</svg>
